# xmcd
#
# Track frame offsets:
# 150
# 15427
# 29892
# 47127
# 64017
# 81110
# 96830
# 119020
# 132245
# 147537
# 163587
# 180135
#
# Disc length: 2600 seconds
#
#
# Revision: 0
# Processed by: cddbd v1.5.2PL0 Copyright (c) Steve Scherf et al.
# Submitted via: FreeRIP 2.95 
#
DISCID=a30a260c
DTITLE=Zezé di Camargo and Luciano  - volume 1
DYEAR=1991
DGENRE=Ballad
TTITLE0=é o amor
TTITLE1=entre ele e eu
TTITLE2=rédeas do posante
TTITLE3=deus
TTITLE4=a estrela só
TTITLE5=pouco a pouco
TTITLE6=águas passadas
TTITLE7=eu te amo
TTITLE8=quem sou eu sem ela
TTITLE9=pra desbotar a saudade
TTITLE10=em mim só dá você
TTITLE11=quem sabe de mim sou eu
EXTD=
EXTT0=
EXTT1=
EXTT2=
EXTT3=
EXTT4=
EXTT5=
EXTT6=
EXTT7=
EXTT8=
EXTT9=
EXTT10=
EXTT11=
PLAYORDER=
